<svg width="64" height="64" viewBox="0 0 64 64" fill="none" xmlns="http://www.w3.org/2000/svg">
  <rect width="64" height="64" rx="16" fill="#09090B"/>
  <path fill-rule="evenodd" clip-rule="evenodd" d="M46.2934 0.312C41.1098 1.6136 37.9658 6.1046 38.4032 11.5824C38.474 12.4664 38.9426 15.2482 39.4446 17.7642C40.301 22.055 40.3576 22.607 40.3548 26.666C40.3512 31.5932 40.1106 32.8712 38.556 36.2216C36.208 41.2828 32.1894 43.4002 27.8202 41.8794C26.0446 41.2616 24.0284 39.192 23.3362 37.2758C22.0564 33.736 22.1568 30.2216 23.7876 21.453C25.3434 13.0868 25.308 9.3078 23.642 5.9044C22.513 3.5974 19.982 1.5266 17.2378 0.664C15.091 -0.0112 11.6514 0.1074 9.61 0.9266C7.5416 1.7564 5.5412 3.4196 3.9666 5.618C1.4088 9.189 0.2652 13.302 0.2802 18.877C0.2854 20.781 0.396 22.7986 0.526 23.361C0.7016 24.1202 0.6686 24.852 0.3986 26.2044C-0.1938 29.1706 -0.1114 36.5204 0.55 39.7162C2.2324 47.8512 5.9114 53.8016 11.6938 57.7388C14.2488 59.479 19.4182 61.7472 23.1594 62.77C30.4022 64.7502 37.515 64.3284 43.1738 61.5836C53.4326 56.607 61.1766 44.7062 63.5626 30.2514C64.145 26.7246 64.1456 19.4708 63.5642 16.157C62.0302 7.4172 57.9462 1.7548 52.1602 0.3442C50.339 -0.1002 47.992 -0.112 46.2934 0.312Z" fill="url(#ugenGradient)"/>
  <defs>
    <linearGradient id="ugenGradient" x1="59.7168" y1="41.7886" x2="6.8968" y2="4.5824" gradientUnits="userSpaceOnUse">
      <stop stop-color="#3B82F6"/>
      <stop offset="0.374375" stop-color="#44A5DF"/>
      <stop offset="1" stop-color="#06B6D4"/>
    </linearGradient>
  </defs>
</svg>
