<svg width="104" height="32" viewBox="0 0 104 32" fill="none" xmlns="http://www.w3.org/2000/svg">
  <path fill-rule="evenodd" clip-rule="evenodd" d="M23.1467 0.156C20.5549 0.8068 18.9829 3.0523 19.2016 5.7912C19.237 6.2332 19.4713 7.6241 19.7223 8.8821C20.1505 11.0275 20.1788 11.3035 20.1774 13.333C20.1756 15.7966 20.0553 16.4356 19.278 18.1108C18.104 20.6414 16.0947 21.7001 13.9101 20.9397C13.0223 20.6308 12.0142 19.596 11.6681 18.6379C11.0282 16.868 11.0784 15.1108 11.8938 10.7265C12.6717 6.5434 12.654 4.6539 11.821 2.9522C11.2565 1.7987 9.991 0.7633 8.6189 0.332C7.5455 -0.0056 5.8257 0.0537 4.805 0.4633C3.7708 0.8782 2.7706 1.7098 1.9833 2.809C0.7044 4.5945 0.1326 6.651 0.1401 9.4385C0.1427 10.3905 0.198 11.3993 0.263 11.6805C0.3508 12.0601 0.3343 12.426 0.1993 13.1022C-0.0969 14.5853 -0.0557 18.2602 0.275 19.8581C1.1162 23.9256 2.9557 26.9008 5.8469 28.8694C7.1244 29.7395 9.7091 30.8736 11.5797 31.385C15.2011 32.3751 18.7575 32.1642 21.5869 30.7918C26.7163 28.3035 30.5883 22.3531 31.7813 15.1257C32.0725 13.3623 32.0728 9.7354 31.7821 8.0785C31.0151 3.7086 28.9731 0.8774 26.0801 0.1721C25.1695 -0.0501 23.996  -0.056 23.1467 0.156Z" fill="url(#ugenGradient)"/>
  <text x="40" y="22.5" font-family="Inter, Arial, sans-serif" font-size="18" font-weight="700" fill="#111827">Ugen</text>
  <defs>
    <linearGradient id="ugenGradient" x1="29.8584" y1="20.8943" x2="3.4484" y2="2.2912" gradientUnits="userSpaceOnUse">
      <stop stop-color="#3B82F6"/>
      <stop offset="0.374375" stop-color="#44A5DF"/>
      <stop offset="1" stop-color="#06B6D4"/>
    </linearGradient>
  </defs>
</svg>
